<svg width="50.000000" height="50.000000" viewBox="0 0 50 50" fill="none" xmlns="http://www.w3.org/2000/svg" xmlns:xlink="http://www.w3.org/1999/xlink">
	<desc>
			Created with Pixso.
	</desc>
	<defs>
		<filter id="filter_206_10232_dd" x="-1477.000000" y="-1886.000000" width="0.000000" height="0.000000" filterUnits="userSpaceOnUse" color-interpolation-filters="sRGB">
			<feFlood flood-opacity="0" result="BackgroundImageFix"/>
			<feColorMatrix in="SourceAlpha" type="matrix" values="0 0 0 0 0 0 0 0 0 0 0 0 0 0 0 0 0 0 127 0" result="hardAlpha"/>
			<feOffset dx="0" dy="7"/>
			<feGaussianBlur stdDeviation="3.33333"/>
			<feComposite in2="hardAlpha" operator="out" k2="-1" k3="1"/>
			<feColorMatrix type="matrix" values="0 0 0 0 0.29412 0 0 0 0 0.29412 0 0 0 0 0.29412 0 0 0 0.1 0"/>
			<feBlend mode="normal" in2="BackgroundImageFix" result="effect_dropShadow_1"/>
			<feColorMatrix in="SourceAlpha" type="matrix" values="0 0 0 0 0 0 0 0 0 0 0 0 0 0 0 0 0 0 127 0" result="hardAlpha"/>
			<feOffset dx="0" dy="-7"/>
			<feGaussianBlur stdDeviation="3.33333"/>
			<feComposite in2="hardAlpha" operator="out" k2="-1" k3="1"/>
			<feColorMatrix type="matrix" values="0 0 0 0 0.29412 0 0 0 0 0.29412 0 0 0 0 0.29412 0 0 0 0.012 0"/>
			<feBlend mode="normal" in2="effect_dropShadow_1" result="effect_dropShadow_2"/>
			<feBlend mode="normal" in="SourceGraphic" in2="effect_dropShadow_2" result="shape"/>
		</filter>
	</defs>
	<rect id="social=twitter" rx="25.000000" width="50.000000" height="50.000000" fill="#FFFFFF" fill-opacity="1.000000"/>
	<path id="twitter" d="M37 17.2668C36.1 17.7203 35.2 17.8715 34.15 18.0226C35.2 17.418 35.95 16.5112 36.25 15.3022C35.35 15.9067 34.3 16.209 33.1 16.5112C32.2 15.6045 30.85 15 29.5 15C26.95 15 24.7 17.2668 24.7 19.9872C24.7 20.4406 24.7 20.7428 24.85 21.045C20.8 20.8939 17.05 18.9293 14.65 15.9067C14.2 16.6624 14.05 17.418 14.05 18.476C14.05 20.1383 14.95 21.6495 16.3 22.5563C15.55 22.5563 14.8 22.254 14.05 21.9518C14.05 24.3699 15.7 26.3345 17.95 26.7878C17.5 26.939 17.05 26.939 16.6 26.939C16.3 26.939 16 26.939 15.7 26.7878C16.3 28.7526 18.1 30.2638 20.35 30.2638C18.7 31.6239 16.6 32.3795 14.2 32.3795C13.75 32.3795 13.45 32.3795 13 32.3795C15.25 33.7397 17.8 34.6465 20.5 34.6465C29.5 34.6465 34.45 27.0901 34.45 20.5917C34.45 20.4406 34.45 20.1383 34.45 19.9872C35.5 19.2316 36.4 18.3248 37 17.2668Z" fill="#000000" fill-opacity="0.870000" fill-rule="nonzero"/>
</svg>
